<svg xmlns="http://www.w3.org/2000/svg" viewBox="0 0 1440 140" preserveAspectRatio="none" width="1440" height="140">
  <defs>
    <linearGradient id="g" x1="0" y1="0" x2="1" y2="0">
      <stop offset="0%" stop-color="#56db67"/>
      <stop offset="100%" stop-color="#c456db"/>
    </linearGradient>
  </defs>
  <path d="M0,140 L0.0,60.3 8.0,60.6 16.0,60.9 24.0,61.2 32.0,61.5 40.0,61.8 48.0,62.1 56.0,62.5 64.0,62.8 72.0,63.2 80.0,63.6 88.0,64.1 96.0,64.5 104.0,65.0 112.0,65.5 120.0,66.1 128.0,66.7 136.0,67.5 144.0,68.4 152.0,70.0 160.0,70.3 168.0,70.6 176.0,70.9 184.0,71.3 192.0,71.6 200.0,72.0 208.0,72.4 216.0,72.8 224.0,73.2 232.0,73.6 240.0,74.1 248.0,74.5 256.0,74.9 264.0,75.3 272.0,75.7 280.0,76.1 288.0,76.5 296.0,76.9 304.0,77.3 312.0,77.7 320.0,78.1 328.0,78.4 336.0,78.8 344.0,79.2 352.0,79.5 360.0,79.8 368.0,80.1 376.0,80.4 384.0,80.7 392.0,81.0 400.0,81.2 408.0,81.5 416.0,81.7 424.0,81.9 432.0,82.1 440.0,82.3 448.0,82.4 456.0,82.6 464.0,82.7 472.0,82.8 480.0,82.9 488.0,82.9 496.0,83.0 504.0,83.0 512.0,83.0 520.0,83.0 528.0,83.0 536.0,82.9 544.0,82.8 552.0,82.7 560.0,82.6 568.0,82.5 576.0,82.4 584.0,82.2 592.0,82.0 600.0,81.8 608.0,81.6 616.0,81.4 624.0,81.2 632.0,80.9 640.0,80.6 648.0,80.3 656.0,80.0 664.0,79.7 672.0,79.4 680.0,79.1 688.0,78.7 696.0,78.3 704.0,78.0 712.0,77.6 720.0,77.2 728.0,76.8 736.0,76.4 744.0,76.0 752.0,75.6 760.0,75.2 768.0,74.8 776.0,74.4 784.0,73.9 792.0,73.5 800.0,73.1 808.0,72.7 816.0,72.3 824.0,71.9 832.0,71.5 840.0,71.2 848.0,70.8 856.0,70.5 864.0,70.2 872.0,69.4 880.0,68.1 888.0,67.3 896.0,66.5 904.0,65.9 912.0,65.4 920.0,64.9 928.0,64.4 936.0,63.9 944.0,63.5 952.0,63.1 960.0,62.7 968.0,62.4 976.0,62.0 984.0,61.7 992.0,61.4 1000.0,61.1 1008.0,60.8 1016.0,60.5 1024.0,60.2 1032.0,60.0 1040.0,59.7 1048.0,59.5 1056.0,59.3 1064.0,59.1 1072.0,58.9 1080.0,58.7 1088.0,58.5 1096.0,58.4 1104.0,58.2 1112.0,58.1 1120.0,57.9 1128.0,57.8 1136.0,57.7 1144.0,57.6 1152.0,57.5 1160.0,57.4 1168.0,57.3 1176.0,57.2 1184.0,57.2 1192.0,57.1 1200.0,57.1 1208.0,57.0 1216.0,57.0 1224.0,57.0 1232.0,57.0 1240.0,57.0 1248.0,57.0 1256.0,57.0 1264.0,57.1 1272.0,57.1 1280.0,57.2 1288.0,57.2 1296.0,57.3 1304.0,57.4 1312.0,57.5 1320.0,57.6 1328.0,57.7 1336.0,57.8 1344.0,58.0 1352.0,58.1 1360.0,58.2 1368.0,58.4 1376.0,58.6 1384.0,58.8 1392.0,59.0 1400.0,59.2 1408.0,59.4 1416.0,59.6 1424.0,59.8 1432.0,60.1 1440.0,60.3 L1440,140 Z" fill="url(#g)"/>
</svg>
